<?xml version="1.0" ?><!DOCTYPE svg  PUBLIC '-//W3C//DTD SVG 1.1//EN'  'http://www.w3.org/Graphics/SVG/1.1/DTD/svg11.dtd'><svg enable-background="new 0 0 1024 1024" height="1024px" id="Iconfinder" version="1.1" viewBox="0 0 1024 1024" width="1024px" xml:space="preserve" xmlns="http://www.w3.org/2000/svg" xmlns:xlink="http://www.w3.org/1999/xlink"><g id="Background"><g id="bg"><path d="M64.014,293.264c0-24.062,16.985-53.702,37.746-65.866L474.255,9.139c20.76-12.164,54.731-12.164,75.493,0    l372.496,218.259c20.76,12.164,37.744,41.804,37.744,65.866v437.488c0,24.062-16.984,53.702-37.744,65.866l-372.496,218.259    c-20.762,12.164-54.733,12.164-75.493,0L101.759,796.618c-20.761-12.164-37.746-41.806-37.746-65.866V293.264z"/></g><path d="M948.902,255.927c0,0-1.072-2.074-3.373-5.443   c-1.865-2.731-3.842-5.701-6.268-8.394c-5.125-5.687-6.867-7.118-7.564-7.743c-2.703-2.416-5.994-4.923-9.17-6.784   C920.209,226.204,550.434,9.539,550.434,9.539s-6.277-3.633-11.965-5.456c-5.688-1.823-9.699-2.625-13.854-3.208   C520.459,0.292,514.699,0,510.981,0c-3.72,0-12.396,0.729-16.114,1.604s-6.437,1.549-7.42,1.877   c-0.984,0.328-3.253,1.121-4.184,1.422c-0.93,0.301-5.223,2.214-5.468,2.352c-0.246,0.138-1.685,0.796-2.494,1.27   c-0.808,0.474-360.534,211.251-360.534,211.251s-15.173,8.302-21.151,13.406c-2.559,2.185-5.398,4.99-7.852,7.774   c-3.278,3.719-5.954,7.385-7.205,9.324c-0.945,1.466-2.338,3.624-3.582,5.852c-1.617,2.897-3.108,5.984-3.76,7.328   c-1.191,2.459-3.376,8.258-3.923,10.008s-1.587,5.673-1.75,6.599c-0.042,0.24-0.712,3.609-0.766,4.01   c-0.055,0.401-0.452,2.994-0.547,4.375c-0.034,0.493-0.218,2.971-0.218,3.044c-0.001,0.073-0.002,440.405-0.002,440.405   s0.357,5.206,0.438,5.778c0.029,0.207,0.465,3.52,0.802,4.959c0.219,0.933,0.656,3.063,0.948,4.083   c0.291,1.021,0.747,2.702,0.984,3.426c0.219,0.67,0.984,2.991,1.239,3.684c0.256,0.691,1.282,3.33,1.568,4.011   c0.293,0.697,1.859,4.119,1.969,4.338S948.902,255.927,948.902,255.927z" enable-background="new    " fill="#FFFFFF" id="bg-light" opacity="0.2"/></g><g id="Iconfinder_1_"><path d="M737.416,392.896c-36.281-58.772-87.979-114.146-153.459-160.388   c-34.703-24.385-69.258-44.017-71.956-44.017c-2.624,0-40.499,18.921-75.831,42.611c-65.48,46.242-113.304,103.021-149.583,161.794   c-48.968,78.875-70.189,163.866-66.479,241.1c0.003-0.002,0.004-0.004,0.006-0.009l0.006,0.025   c-0.004-0.007-0.008-0.012-0.012-0.019c0,0,2.567,39.819,4.755,46.733c2.188,6.916,70.558,54.825,112.395,69.55   c-0.001,0-0.002-0.002-0.003-0.002c48.719,20.558,109.208,32.731,174.746,32.731c65.536,0,126.028-12.175,174.745-32.731   c0,0,0,0.002-0.002,0.002c41.838-14.725,110.207-62.634,112.395-69.55c2.189-6.914,4.754-46.733,4.754-46.733   c-0.002,0.004-0.004,0.007-0.006,0.01l0.002-0.016c0.002,0.003,0.004,0.005,0.004,0.006   C807.602,556.763,786.381,471.771,737.416,392.896z M221.968,637.061h0.006c0.001,0.006,0.003,0.013,0.004,0.019   C221.975,637.071,221.971,637.067,221.968,637.061z M757.158,663.281c-9.035,15.663-176.064,95.07-107.738,36.169   c59.561-51.349,57.344-120.667,55.797-137.612c-39.67,140.574-146.287,168.442-238.698,168.85   c-93.093,0.411-192.833-54.058-201.871-69.72s5.804-200.006,22.605-111.374c14.656,77.316,75.858,110.082,91.251,117.189   c-102.479-104.779-74.396-211.886-27.375-291.601c48-81.373,143.205-139.996,161.287-139.996   c18.083,0,170.328,104.997,85.164,75.248c-85.165-29.75-148.222,21.402-148.222,21.402   C591.9,294.873,669.373,373.742,716.49,453.619C762.092,530.928,766.193,647.618,757.158,663.281z" fill="#FFFFFF"/><path d="M673.314,475.048c-26.205-21.88-54.383-35.405-79.736-43.755c-17.689-6.253-37.533-10.534-58.701-12.342   c-14.182-1.358-22.875-0.978-22.875-0.978l0,0c0,0-8.691-0.382-22.873,0.978c-21.168,1.807-41.011,6.088-58.699,12.34   c-25.355,8.351-53.533,21.876-79.74,43.757c0,0-6.744,23.468,2.679,58.459c33.178,134.377,246.733,144.111,306.254,29.343   c0.068-0.121,0.137-0.235,0.199-0.362c0.041-0.088,0.08-0.172,0.121-0.258c4.486-8.77,8.08-18.261,10.629-28.474   C680.09,498.627,673.314,475.048,673.314,475.048z M513.049,590.107c-43.009,0-77.874-34.767-77.874-77.653   c0-9.756,1.81-19.088,5.104-27.69c4.941,12.012,16.757,20.472,30.553,20.472c18.242,0,33.03-14.787,33.03-33.029   c0-14.271-9.049-26.425-21.723-31.043c9.477-4.09,19.926-6.362,30.91-6.362c43.006,0,77.873,34.767,77.873,77.654   C590.922,555.34,556.055,590.107,513.049,590.107z" fill="#FFFFFF"/></g></svg>